<?xml version="1.0" encoding="UTF-8" standalone="no"?>
<!-- Created with Inkscape (http://www.inkscape.org/) -->

<svg
   width="8.2007627mm"
   height="7.5437517mm"
   viewBox="0 0 8.2007627 7.5437517"
   fill="black"
   xmlns="http://www.w3.org/2000/svg"
   xmlns:svg="http://www.w3.org/2000/svg">
  <g
     id="layer1"
     transform="translate(-0.94799482,-1.2155004)">
    <path
       d="m 6.0598367,4.4130302 q 0,0.2250722 -0.00776,0.4811888 -0.00776,0.2483555 -0.015522,0.4035777 h 0.023283 Q 6.2150589,4.9485468 6.57207,4.7157135 6.929081,4.4751191 7.4645976,4.4751191 q 0.7916332,0 1.2340165,0.5432777 0.4501443,0.5355166 0.4501443,1.5910275 0,0.9778998 -0.4501443,1.5677442 -0.4423833,0.5820832 -1.2961054,0.5820832 -0.5199943,0 -0.8537221,-0.2095499 Q 6.22282,8.3323907 6.0675978,8.0141852 H 6.0365534 L 5.9511812,8.6816406 H 5.6174535 V 2.7831972 h 0.4423832 z m 1.3504331,0.4423833 q -0.7217832,0 -1.0399887,0.4501443 -0.3104444,0.4501444 -0.3104444,1.3038665 v 0.054328 q 0,0.8381998 0.2949222,1.2805831 0.3026833,0.4346221 1.0011832,0.4346221 0.6596943,0 0.993422,-0.4579054 0.3414888,-0.4656666 0.3414888,-1.3193887 0,-1.7462497 -1.2805831,-1.7462499 z" />
    <path
       d="m 1.3529835,8.6435838 c 0.5630329,0 0.9285104,-2.7262646 1.9064097,-2.7262646 0.2074331,0 0.3753552,0.128411 0.3753552,0.474133 0,0.4741329 -0.3062108,1.0766769 -0.3062108,1.4915433 0,0.3555997 0.2271887,0.6222995 0.6815661,0.6222995 0.7605883,0 1.4816656,-0.7507105 1.8965319,-1.718732 L 5.7782246,6.6680297 C 5.3831138,7.5273957 4.6817921,8.248473 4.2372924,8.248473 c -0.1679221,0 -0.2963331,-0.1086555 -0.2963331,-0.3753553 0,-0.4840107 0.4247442,-1.0470437 0.4247442,-1.6594654 0,-0.4346219 -0.2074332,-0.8889994 -0.7507106,-0.8889994 -0.8791216,0 -1.5409322,1.205088 -2.0051874,2.5583426 C 1.5999277,7.7940956 1.59005,7.6953178 1.59005,7.5471513 1.59005,7.0137517 1.7085832,6.184019 1.9555275,5.6012305 3.1211044,4.8999088 4.2274147,2.7564326 4.2274147,1.8378 c 0,-0.2666998 -0.0889,-0.6222996 -0.3259665,-0.6222996 -0.859366,0 -2.95345332,4.5141411 -2.95345332,6.4007953 0,0.5235218 0.15804432,1.0272881 0.40498862,1.0272881 z M 2.0839385,5.2159975 C 2.577827,3.6059209 3.654504,2.0155999 3.8520594,2.0155999 c 0.029633,0 0.039511,0.019755 0.039511,0.079022 0,0.5037663 -0.8988771,2.3904205 -1.8076319,3.1213756 z" />
  </g>
</svg>
