<?xml version="1.0" encoding="UTF-8" standalone="no"?>
<!-- Created with Inkscape (http://www.inkscape.org/) -->

<svg
   width="38.552345mm"
   height="7.5437517mm"
   viewBox="0 0 38.552345 7.5437517"
   fill="white"
   xmlns="http://www.w3.org/2000/svg"
   xmlns:svg="http://www.w3.org/2000/svg">
  <g
     id="layer1"
     transform="translate(-1.2478246,-1.2155004)">
    <path
       d="m 20.117995,4.4130302 q 0,0.2250722 -0.0078,0.4811888 -0.0078,0.2483555 -0.01552,0.4035777 h 0.02328 q 0.155222,-0.3492499 0.512233,-0.5820832 0.357011,-0.2405944 0.892528,-0.2405944 0.791633,0 1.234016,0.5432777 0.450144,0.5355166 0.450144,1.5910275 0,0.9778998 -0.450144,1.5677442 -0.442383,0.5820832 -1.296105,0.5820832 -0.519995,0 -0.853722,-0.2095499 -0.325967,-0.2173111 -0.481189,-0.5355166 h -0.03104 l -0.08537,0.6674554 H 19.675611 V 2.7831972 h 0.442384 z m 1.350433,0.4423833 q -0.721783,0 -1.039989,0.4501443 -0.310444,0.4501444 -0.310444,1.3038665 v 0.054328 q 0,0.8381998 0.294922,1.2805831 0.302683,0.4346221 1.001183,0.4346221 0.659694,0 0.993422,-0.4579054 0.341489,-0.4656666 0.341489,-1.3193887 0,-1.7462497 -1.280583,-1.7462499 z m 6.31755,1.7540108 q 0,0.6519332 -0.217311,1.133122 -0.20955,0.4811888 -0.62865,0.7528277 -0.411338,0.2638777 -1.008944,0.2638777 -0.574322,0 -0.985661,-0.2638777 Q 24.534073,8.2314963 24.309001,7.7503074 24.09169,7.2613575 24.09169,6.6094243 q 0,-1.0011832 0.496711,-1.5677442 0.496711,-0.566561 1.373717,-0.566561 0.589844,0 0.993422,0.2716388 0.411338,0.2638778 0.620888,0.7450666 0.20955,0.4811888 0.20955,1.1175998 z m -3.236382,0 q 0,0.7993943 0.333727,1.2883442 0.341489,0.4811888 1.055511,0.4811888 0.721783,0 1.055511,-0.4889499 0.333728,-0.4889499 0.333728,-1.2805831 0,-0.5122332 -0.1397,-0.9080498 -0.1397,-0.3958167 -0.442383,-0.6208888 -0.302684,-0.2250722 -0.791634,-0.2250722 -0.698499,0 -1.055511,0.4656666 -0.349249,0.4656666 -0.349249,1.2883442 z m 7.815439,0 q 0,0.6519332 -0.217311,1.133122 -0.20955,0.4811888 -0.62865,0.7528277 -0.411339,0.2638777 -1.008945,0.2638777 -0.574322,0 -0.985661,-0.2638777 Q 29.11313,8.2314963 28.888057,7.7503074 28.670746,7.2613575 28.670746,6.6094243 q 0,-1.0011832 0.496711,-1.5677442 0.496711,-0.566561 1.373717,-0.566561 0.589844,0 0.993422,0.2716388 0.411339,0.2638778 0.620889,0.7450666 0.20955,0.4811888 0.20955,1.1175998 z m -3.236383,0 q 0,0.7993943 0.333727,1.2883442 0.341489,0.4811888 1.055511,0.4811888 0.721784,0 1.055511,-0.4889499 0.333728,-0.4889499 0.333728,-1.2805831 0,-0.5122332 -0.1397,-0.9080498 -0.1397,-0.3958167 -0.442383,-0.6208888 -0.302683,-0.2250722 -0.791633,-0.2250722 -0.6985,0 -1.055511,0.4656666 -0.34925,0.4656666 -0.34925,1.2883442 z M 35.19008,4.4828802 q 0.302683,0 0.558799,0.062089 l -0.06985,0.4113388 q -0.248355,-0.06985 -0.512233,-0.06985 -0.566561,0 -0.900289,0.4190999 -0.333727,0.4191 -0.333727,1.1098388 v 2.266244 H 33.490396 V 4.5527302 h 0.372534 l 0.04657,0.7683499 h 0.02328 q 0.155222,-0.34925 0.473427,-0.5898444 0.318206,-0.2483555 0.783873,-0.2483555 z m 4.610092,0.06985 v 4.1289104 h -0.357011 l -0.06985,-0.706261 h -0.02328 q -0.170744,0.3414889 -0.527755,0.566561 -0.34925,0.2173111 -0.877006,0.2173111 -1.451327,0 -1.451327,-1.5056553 V 4.5527302 h 0.442383 v 2.6620607 q 0,0.5976054 0.263878,0.8847665 0.271638,0.2793999 0.799394,0.2793999 1.358194,0 1.358194,-1.5755053 V 4.5527302 Z" />
    <path
       d="m 1.6528132,8.6435838 c 0.5630329,0 0.9285104,-2.7262646 1.9064097,-2.7262646 0.2074332,0 0.3753553,0.128411 0.3753553,0.474133 0,0.4741329 -0.3062109,1.0766769 -0.3062109,1.4915433 0,0.3555997 0.2271887,0.6222995 0.6815661,0.6222995 0.7605884,0 1.4816656,-0.7507105 1.896532,-1.718732 L 6.0780543,6.6680297 C 5.6829435,7.5273957 4.9816218,8.248473 4.5371222,8.248473 c -0.1679221,0 -0.2963332,-0.1086555 -0.2963332,-0.3753553 0,-0.4840107 0.4247442,-1.0470437 0.4247442,-1.6594654 0,-0.4346219 -0.2074332,-0.8889994 -0.7507106,-0.8889994 -0.8791215,0 -1.5409322,1.205088 -2.0051874,2.5583426 -0.00988,-0.0889 -0.019756,-0.1876777 -0.019756,-0.3358442 0,-0.5333996 0.1185332,-1.3631323 0.3654775,-1.9459208 C 3.4209341,4.8999088 4.5272444,2.7564326 4.5272444,1.8378 c 0,-0.2666998 -0.0889,-0.6222996 -0.3259664,-0.6222996 -0.8593661,0 -2.9534534,4.5141411 -2.9534534,6.4007953 0,0.5235218 0.1580443,1.0272881 0.4049886,1.0272881 z M 2.3837682,5.2159975 C 2.8776567,3.6059209 3.9543337,2.0155999 4.1518891,2.0155999 c 0.029633,0 0.039511,0.019755 0.039511,0.079022 0,0.5037663 -0.8988771,2.3904205 -1.8076319,3.1213756 z m 4.188173,3.3683197 c 0.4938885,0 1.0569214,-0.4444997 1.5112989,-1.0371659 0.1481665,0.069144 0.2963331,0.098778 0.4741329,0.098778 0.4346219,0 0.9778993,-0.2271887 1.2445991,-0.8494883 L 9.6834389,6.697663 C 9.4463724,7.2409404 8.9327283,7.4088625 8.6265174,7.4088625 c -0.1382888,0 -0.2666998,-0.039511 -0.3753553,-0.098778 0.3852331,-0.5729107 0.6618107,-1.2445991 0.6618107,-1.7582431 0,-0.4346219 -0.1481666,-0.7605884 -0.6815662,-0.7605884 -0.6222995,0 -0.9680215,0.5926663 -0.9680215,1.2445991 0,0.5136441 0.2074332,1.0470437 0.5827885,1.3532546 -0.3654775,0.4642552 -0.7803439,0.7902216 -1.0569215,0.7902216 -0.2173109,0 -0.3555997,-0.1679221 -0.3555997,-0.5630329 0,-0.4938885 0.4543774,-1.5606877 0.7013217,-1.7681209 -0.069144,-0.029633 -0.1382888,-0.049389 -0.2074332,-0.049389 -0.5630329,0 -1.1359436,1.076677 -1.1359436,1.8866542 0,0.5037663 0.217311,0.8988771 0.7803439,0.8988775 z M 8.0239734,7.1322849 C 7.7967847,6.8655851 7.6881292,6.4507188 7.6881292,6.0654857 c 0,-0.5729107 0.345722,-1.0075326 0.6124218,-1.0075326 0.1679221,0 0.2963331,0.1679221 0.2963331,0.5531552 0,0.474133 -0.2469442,1.0371659 -0.5729107,1.5211766 z m 6.4501826,1.4421545 c 0.790221,0 1.392765,-0.9383882 1.708854,-1.7681209 L 16.064477,6.6680297 c -0.306211,0.6716884 -0.780344,1.5606877 -1.323622,1.5606877 -0.227188,0 -0.296333,-0.1580443 -0.296333,-0.3358441 0,-0.4148664 0.365478,-1.1260659 0.365478,-1.6495877 0,-0.3358442 -0.148167,-0.6321773 -0.563033,-0.6321773 -0.671688,0 -1.224844,0.7704661 -1.63971,1.5211766 0.108656,-0.2666998 0.306211,-0.8889993 0.306211,-1.3927656 0,-0.4049886 -0.128411,-0.7507105 -0.5334,-0.7507105 -0.711199,0 -1.55081,1.0371658 -2.084209,1.8767763 0.148166,-0.4938885 0.256822,-0.9482659 0.256822,-1.1260658 0,-0.1580443 -0.0889,-0.256822 -0.2667,-0.256822 -0.187678,0 -0.3753553,0.1185332 -0.4543774,0.2074332 -0.00988,0.8692437 -0.6815662,2.4891981 -0.6815662,2.6373647 0,0.098778 0.345722,0.2074331 0.5333996,0.2074331 0.484011,-1.333499 1.669343,-2.8941867 2.242254,-2.8941867 0.1778,0 0.246944,0.1481666 0.246944,0.3753553 0,0.6914439 -0.622299,2.0940873 -0.622299,2.2718872 0,0.1382888 0.345722,0.1975554 0.503766,0.1975554 0.128411,-0.2666998 0.2667,-0.602544 0.474133,-0.9186327 0.612422,-0.9383882 0.968021,-1.4717878 1.293988,-1.4717878 0.148166,0 0.286455,0.098778 0.286455,0.3555998 0,0.385233 -0.296333,0.9186326 -0.296333,1.4026434 0,0.3951108 0.197555,0.7210772 0.661811,0.7210772 z m 2.469441,0.128411 c 0.9779,0 2.005188,-0.7605883 2.538587,-1.9459207 l -0.118533,-0.0889 c -0.493889,0.948266 -1.37301,1.7483654 -2.212621,1.7483654 -0.612421,0 -0.780343,-0.4247441 -0.780343,-0.8297327 0,-0.098778 0.0099,-0.2271887 0.03951,-0.3555998 1.126065,-0.1086554 2.449687,-0.9087548 2.449687,-1.9162874 0,-0.4840108 -0.306211,-0.602544 -0.612422,-0.602544 -1.165577,0 -2.508954,1.6693432 -2.508954,2.8447979 0,0.642055 0.404989,1.1458213 1.205089,1.1458213 z M 16.459586,7.043385 c 0.2667,-0.9383882 1.126066,-2.0249429 1.758244,-2.0249429 0.167922,0 0.207433,0.079022 0.207433,0.2271887 0,0.8494882 -1.264355,1.5508099 -1.965677,1.7977542 z" />
  </g>
</svg>
